<?xml version="1.0" standalone="no"?>
<!DOCTYPE svg PUBLIC "-//W3C//DTD SVG 20010904//EN"
 "http://www.w3.org/TR/2001/REC-SVG-20010904/DTD/svg10.dtd">
<svg version="1.0" xmlns="http://www.w3.org/2000/svg"
 width="200.000000pt" height="200.000000pt" viewBox="0 0 200.000000 200.000000"
 preserveAspectRatio="xMidYMid meet">

<g transform="translate(0.000000,200.000000) scale(0.100000,-0.100000)"
fill="#000000" stroke="none">
<path d="M704 1481 c-31 -22 -54 -29 -107 -33 -42 -4 -86 -15 -116 -30 -48
-24 -49 -24 -85 -5 -34 18 -38 18 -62 2 -53 -34 -64 -53 -64 -105 0 -43 -3
-50 -20 -50 -40 0 -73 -24 -91 -68 -20 -46 -15 -72 18 -90 14 -8 17 -28 17
-118 1 -99 4 -115 31 -174 16 -36 49 -89 72 -117 31 -38 43 -62 43 -85 0 -43
7 -51 56 -76 l42 -21 26 25 c23 24 28 25 61 14 19 -6 68 -12 108 -13 53 -2 85
-8 119 -25 47 -23 49 -23 93 -6 54 20 57 24 59 78 l1 43 -50 -23 c-27 -13 -55
-24 -60 -24 -26 0 -151 150 -239 288 l-46 73 34 82 c37 89 37 90 -27 101 -36
7 -38 6 -54 -31 l-16 -38 -20 42 c-20 42 -42 53 -103 53 l-23 0 20 -47 c72
-171 188 -356 295 -472 l69 -74 -60 5 c-67 6 -171 40 -194 62 -12 13 -12 24 5
88 l20 73 -29 47 c-17 27 -33 48 -37 48 -4 0 -15 -35 -24 -77 -26 -116 -24
-113 -58 -73 -73 84 -116 233 -99 340 8 49 7 57 -12 77 -11 13 -17 26 -13 30
11 12 169 7 261 -7 44 -6 127 -23 183 -36 57 -13 108 -24 113 -24 5 0 9 22 9
49 l0 49 -55 13 -56 14 50 85 c46 81 50 85 80 82 33 -2 113 -39 166 -75 l30
-21 -20 23 c-11 13 -39 37 -62 53 -37 25 -43 34 -43 64 0 27 -5 36 -22 43 -61
22 -75 21 -114 -8z m86 -37 c0 -8 -5 -12 -10 -9 -6 4 -8 11 -5 16 9 14 15 11
15 -7z m-170 -56 c-11 -18 -35 -57 -52 -86 -18 -31 -36 -51 -43 -48 -7 2 -48
8 -93 11 l-80 7 -11 38 c-12 40 -15 80 -6 80 4 0 19 -7 35 -15 27 -14 33 -14
63 1 46 24 115 42 165 43 l44 1 -22 -32z m-186 -807 c3 -5 -1 -11 -9 -15 -9
-3 -15 0 -15 9 0 16 16 20 24 6z m422 -37 c-4 -12 -10 -12 -26 -4 -26 14 -25
25 3 37 24 11 34 -4 23 -33z"/>
<path d="M792 1038 l3 -203 48 -3 47 -3 1 143 1 143 35 -142 35 -143 42 0 43
0 34 143 34 142 3 -142 3 -143 44 0 45 0 0 205 0 205 -68 0 -69 0 -32 -141
c-18 -77 -35 -138 -38 -135 -3 2 -19 64 -37 138 l-31 133 -73 3 -72 3 2 -203z"/>
<path d="M1260 1066 c0 -170 1 -176 24 -203 23 -27 29 -28 125 -31 l101 -4 0
41 0 41 -70 0 c-67 0 -71 1 -81 27 -18 49 -10 58 59 61 l63 3 -3 37 -3 37 -60
5 -60 5 0 35 0 35 73 3 72 3 0 39 0 40 -120 0 -120 0 0 -174z"/>
<path d="M1560 1035 l0 -205 45 0 44 0 3 83 3 82 40 0 40 0 3 -82 3 -83 49 0
50 0 0 93 c0 62 -5 100 -15 117 -8 14 -17 31 -21 38 -3 7 8 46 24 88 l31 75
-47 -3 -46 -3 -32 -75 c-26 -64 -35 -75 -57 -78 l-27 -3 0 80 0 81 -45 0 -45
0 0 -205z"/>
<path d="M794 776 c-3 -8 -4 -27 -2 -43 2 -20 9 -29 26 -31 12 -2 22 1 22 7 0
6 -7 11 -15 11 -21 0 -19 18 3 23 16 4 16 5 0 6 -22 1 -24 21 -3 21 8 0 15 5
15 10 0 15 -40 12 -46 -4z"/>
<path d="M897 784 c-11 -11 -8 -84 3 -84 6 0 10 10 11 23 l0 22 11 -22 c18
-37 38 -28 38 16 0 22 -4 43 -10 46 -6 3 -10 -4 -10 -17 l0 -23 -18 23 c-10
13 -21 20 -25 16z"/>
<path d="M1005 780 c-3 -5 -1 -10 4 -10 6 0 11 -16 11 -35 0 -19 5 -35 10 -35
6 0 10 16 10 35 0 19 5 35 11 35 5 0 7 5 4 10 -3 6 -15 10 -25 10 -10 0 -22
-4 -25 -10z"/>
<path d="M1110 745 c0 -42 2 -45 26 -45 27 0 24 20 -4 20 -15 1 -15 2 2 15 17
13 18 15 3 15 -9 0 -17 5 -17 10 0 6 9 10 21 10 11 0 17 5 14 10 -3 6 -15 10
-26 10 -16 0 -19 -7 -19 -45z"/>
<path d="M1211 743 c0 -44 1 -46 11 -23 11 25 11 25 15 3 7 -38 23 -26 23 16
0 37 -11 51 -41 51 -5 0 -9 -21 -8 -47z m29 17 c0 -5 -2 -10 -4 -10 -3 0 -8 5
-11 10 -3 6 -1 10 4 10 6 0 11 -4 11 -10z"/>
<path d="M1310 746 c0 -25 5 -46 10 -46 6 0 10 7 10 15 0 8 7 15 16 15 26 0
14 54 -13 58 -21 3 -23 -1 -23 -42z m27 2 c-3 -8 -6 -5 -6 6 -1 11 2 17 5 13
3 -3 4 -12 1 -19z"/>
<path d="M1417 783 c-11 -10 -8 -83 2 -83 5 0 12 10 14 23 l4 22 8 -22 c11
-34 24 -28 22 10 -4 49 -28 73 -50 50z m33 -23 c0 -5 -4 -10 -10 -10 -5 0 -10
5 -10 10 0 6 5 10 10 10 6 0 10 -4 10 -10z"/>
<path d="M1523 745 c0 -27 2 -38 4 -22 2 15 2 37 0 50 -2 12 -4 0 -4 -28z"/>
<path d="M1593 783 c-20 -8 -15 -31 9 -44 l22 -12 -24 -10 c-21 -9 -22 -11 -7
-14 42 -10 69 33 27 44 -23 6 -27 23 -5 23 8 0 15 5 15 10 0 10 -16 12 -37 3z"/>
<path d="M1687 783 c-10 -9 -8 -55 2 -71 5 -8 19 -12 32 -9 l24 4 -24 8 c-23
8 -23 9 -6 22 17 12 17 13 2 13 -9 0 -17 5 -17 10 0 6 7 10 15 10 8 0 15 5 15
10 0 11 -33 14 -43 3z"/>
<path d="M1797 783 c-12 -12 -7 -36 11 -49 16 -13 16 -13 0 -14 -25 0 -22 -20
2 -20 32 0 37 30 9 51 l-24 19 23 0 c13 0 20 4 17 10 -7 11 -28 13 -38 3z"/>
</g>
</svg>
